<?xml version="1.0" standalone="no"?>
<!DOCTYPE svg PUBLIC "-//W3C//DTD SVG 20010904//EN"
 "http://www.w3.org/TR/2001/REC-SVG-20010904/DTD/svg10.dtd">
<svg version="1.0" xmlns="http://www.w3.org/2000/svg"
 width="700.000000pt" height="700.000000pt" viewBox="0 0 700.000000 700.000000"
 preserveAspectRatio="xMidYMid meet">
<metadata>
Created by potrace 1.14, written by Peter Selinger 2001-2017
</metadata>
<g transform="translate(0.000000,700.000000) scale(0.100000,-0.100000)"
fill="#000000" stroke="none">
<path d="M2550 6530 c-36 -11 -107 -40 -158 -65 -74 -37 -100 -56 -133 -98
-62 -78 -66 -93 -73 -250 -3 -84 -1 -102 18 -139 29 -56 72 -78 158 -78 131 0
288 -47 374 -111 51 -37 74 -46 284 -109 58 -17 134 -41 170 -52 36 -11 72
-21 80 -23 8 -2 92 -27 185 -55 94 -28 185 -51 202 -51 42 1 85 23 112 58 l22
26 142 -40 142 -40 3 -171 2 -172 -22 9 c-17 6 -23 17 -24 44 -4 59 -63 126
-124 140 -31 7 -75 20 -310 92 -102 31 -198 61 -215 65 -16 4 -106 31 -200 60
-93 28 -215 65 -270 82 -55 16 -145 44 -200 61 -107 32 -169 38 -206 20 -44
-21 -113 -51 -179 -78 -92 -38 -109 -51 -131 -99 -15 -36 -18 -64 -16 -162 2
-107 5 -125 29 -175 56 -113 46 -107 816 -492 580 -290 709 -358 720 -380 8
-16 12 -54 10 -97 l-3 -70 -60 30 c-163 79 -372 151 -512 174 -76 13 -91 15
-143 22 -61 7 -253 7 -315 0 -175 -20 -387 -89 -526 -171 -35 -21 -98 -56
-139 -78 -129 -69 -221 -138 -330 -247 -214 -214 -358 -493 -421 -820 -12 -63
-24 -117 -25 -118 -1 -2 -41 8 -89 23 -119 37 -144 33 -283 -50 -108 -65 -140
-97 -148 -145 -2 -8 -6 -170 -9 -360 -3 -190 -7 -360 -8 -378 -2 -17 1 -32 6
-32 4 0 6 -4 2 -9 -6 -11 73 -94 95 -100 8 -2 22 -5 30 -6 8 -2 17 -4 20 -5 3
-1 9 -2 14 -1 5 1 6 -5 2 -14 -3 -9 -2 -14 3 -11 5 3 11 -1 14 -8 4 -10 -1
-14 -14 -13 -10 1 -20 5 -20 9 -1 4 -2 12 -3 17 0 5 -4 13 -8 17 -4 3 -5 -4
-3 -16 2 -12 7 -25 10 -28 13 -14 41 -10 60 8 19 17 24 18 59 6 22 -8 33 -16
25 -18 -8 -3 2 -6 21 -6 19 0 43 -2 54 -5 20 -4 49 -37 41 -46 -3 -2 -12 4
-19 15 -18 23 -41 7 -33 -22 4 -16 5 -15 6 4 1 26 16 29 25 6 3 -9 13 -14 21
-10 8 3 17 1 20 -4 4 -6 1 -10 -6 -10 -7 0 -10 -3 -6 -6 3 -3 10 -3 16 1 7 4
5 14 -5 31 -22 33 -10 30 25 -5 16 -16 32 -27 37 -23 4 4 4 -1 1 -10 -4 -10
-2 -18 3 -18 5 0 9 11 8 24 -1 14 -6 22 -10 20 -4 -3 -18 2 -30 12 -13 9 -16
14 -8 12 8 -3 36 -11 63 -19 26 -7 47 -17 47 -22 0 -4 5 -5 12 -1 8 5 9 2 5
-9 -4 -10 1 -22 13 -30 11 -8 17 -17 13 -20 -3 -4 -1 -7 5 -7 7 0 10 12 8 29
-3 24 0 29 15 28 11 -1 19 -5 19 -10 0 -4 4 -6 9 -2 5 3 12 1 16 -5 4 -6 11
-8 16 -5 5 4 9 1 9 -4 0 -6 -5 -11 -12 -11 -6 0 -8 -3 -5 -6 4 -4 14 -1 22 6
26 22 42 -3 25 -37 -8 -16 -16 -32 -19 -37 -2 -5 1 -6 7 -2 7 4 12 14 12 22 0
8 6 17 14 20 8 3 12 12 9 20 -3 8 -1 14 5 14 5 0 13 -7 16 -16 9 -22 8 -24
-11 -25 -13 0 -12 -3 6 -10 15 -6 28 -6 36 1 12 10 25 4 25 -12 0 -4 -6 -7
-12 -5 -7 1 -13 -5 -13 -13 0 -8 -5 -22 -10 -30 -7 -13 -6 -13 7 -2 9 8 14 20
12 27 -4 10 1 13 20 9 16 -3 26 0 26 7 0 7 -3 9 -7 6 -3 -4 -13 2 -21 14 -10
15 -17 18 -25 10 -16 -16 -31 -13 -18 3 7 8 8 16 4 18 -4 3 -1 3 7 0 8 -2 21
-5 28 -5 6 0 12 -4 12 -7 0 -4 12 -7 26 -8 14 0 31 -5 37 -11 8 -8 7 -11 -4
-11 -8 0 -19 3 -25 8 -5 4 -3 0 4 -8 10 -11 16 -12 31 -3 14 9 29 8 64 -4 26
-8 47 -20 47 -27 0 -6 5 -4 10 4 8 13 10 12 10 -2 0 -10 5 -18 11 -18 5 0 8 4
4 9 -6 10 27 7 45 -4 5 -3 20 -8 32 -10 12 -3 24 -8 27 -12 3 -5 15 -9 26 -9
44 -3 81 -14 91 -29 13 -17 29 -21 18 -4 -5 8 -1 8 13 0 11 -6 23 -7 27 -4 3
3 6 1 6 -5 0 -6 7 -9 16 -5 9 3 19 1 23 -5 4 -6 21 -12 39 -14 22 -1 31 -7 28
-15 -3 -7 -1 -23 4 -35 5 -13 9 -17 9 -9 1 24 51 54 51 30 0 -5 -6 -7 -12 -3
-10 6 -10 4 -1 -7 18 -18 16 -34 -1 -20 -10 8 -16 9 -21 1 -4 -6 -3 -10 2 -9
4 1 10 1 13 -1 22 -8 50 -8 50 1 0 5 -4 8 -9 5 -5 -3 -11 1 -15 9 -11 28 15
26 45 -5 17 -17 34 -28 38 -24 3 4 0 9 -7 11 -6 3 -10 9 -7 14 4 5 -1 6 -9 3
-9 -3 -16 -2 -16 4 0 12 18 11 40 -3 8 -5 21 -10 30 -11 20 -3 55 -12 55 -14
0 -1 10 -3 23 -6 13 -2 35 -10 50 -18 15 -7 34 -11 42 -8 12 4 13 3 3 -10 -10
-12 -10 -18 2 -34 15 -19 15 -19 9 1 -6 16 -4 18 6 8 11 -10 16 -9 25 4 8 10
17 13 26 8 7 -5 20 -10 29 -11 8 -2 24 -5 35 -8 11 -2 27 -5 35 -6 10 -1 11
-3 3 -7 -7 -2 -13 -9 -13 -14 0 -6 7 -6 19 0 10 6 21 8 23 5 3 -2 15 -7 27 -9
11 -3 31 -7 43 -10 12 -2 25 -10 29 -16 5 -8 8 -7 12 2 4 10 6 9 6 -3 1 -10 6
-18 12 -18 5 0 7 5 3 11 -4 8 0 8 15 0 11 -7 21 -9 21 -5 0 4 10 -1 22 -12 12
-10 18 -13 14 -7 -5 9 -2 11 9 7 12 -5 13 -10 5 -18 -6 -6 -16 -11 -22 -11 -6
0 -13 -7 -15 -15 -4 -12 -3 -12 5 -2 5 8 12 12 15 10 4 -1 14 4 24 12 14 12
25 13 51 4 28 -9 31 -12 19 -22 -12 -10 -16 -9 -21 3 -5 14 -8 14 -36 0 -16
-8 -30 -18 -30 -20 0 -9 24 0 38 13 12 10 17 10 28 -5 7 -10 14 -14 14 -10 0
5 7 1 16 -8 12 -11 20 -13 27 -6 8 8 7 15 -2 24 -10 10 -11 8 -5 -8 7 -18 6
-19 -10 -6 -16 14 -16 15 0 24 13 7 22 3 40 -19 13 -16 23 -24 24 -17 0 6 -6
13 -12 16 -7 2 -10 8 -6 12 4 4 14 3 21 -3 8 -7 18 -8 22 -4 5 4 1 -6 -9 -22
-10 -16 -12 -25 -5 -21 9 6 11 3 6 -9 -4 -11 -3 -15 4 -11 6 4 8 13 5 20 -9
25 21 39 54 25 16 -7 30 -17 30 -22 0 -6 -8 -4 -17 3 -16 13 -16 13 0 -10 12
-19 14 -29 5 -45 -6 -12 6 -3 26 19 20 22 36 34 36 28 0 -7 5 -13 11 -13 5 0
7 6 3 13 -6 9 -4 9 7 1 11 -9 35 -18 79 -29 3 0 22 -7 43 -14 30 -10 36 -16
27 -26 -7 -8 -9 -18 -6 -24 7 -10 43 -3 52 10 3 5 -6 5 -20 -1 -27 -10 -34 -2
-14 18 8 8 17 8 30 1 10 -5 24 -7 30 -3 6 4 8 3 5 -3 -4 -6 4 -10 19 -10 15
-1 29 -6 33 -12 4 -6 15 -9 23 -6 9 4 19 1 24 -6 4 -8 3 -10 -4 -5 -8 5 -10 2
-6 -8 3 -9 10 -16 16 -16 5 0 7 4 3 9 -8 13 12 24 28 14 6 -4 15 -8 20 -9 4
-1 10 -2 15 -3 4 -1 1 -5 -7 -10 -10 -7 -19 -4 -28 7 -12 15 -13 14 -3 -6 11
-22 13 -22 35 -8 12 8 26 12 30 8 7 -7 12 -8 40 -11 8 0 15 -6 15 -12 0 -5 -5
-7 -12 -3 -7 4 -8 3 -4 -4 4 -7 0 -12 -11 -13 -11 0 -13 -3 -5 -6 7 -3 22 3
32 12 13 12 25 14 42 9 13 -4 26 -7 31 -6 4 1 7 -3 7 -9 0 -5 4 -8 9 -5 5 3
12 -1 15 -10 8 -21 8 -26 -2 -20 -4 2 -14 1 -21 -4 -9 -5 -1 -7 20 -7 19 1 39
7 44 15 8 10 17 11 37 3 14 -5 29 -7 32 -4 3 4 6 1 6 -5 0 -7 7 -12 16 -12 8
0 12 -4 9 -10 -3 -5 -1 -10 4 -10 6 0 11 5 11 10 0 6 5 10 11 10 5 0 7 -4 4
-10 -3 -5 -2 -10 3 -10 5 0 9 -52 9 -115 0 -82 -3 -113 -11 -108 -8 5 -8 3 0
-8 7 -8 11 -53 10 -114 -2 -65 2 -106 10 -119 7 -10 10 -24 8 -31 -3 -7 0 -16
5 -20 13 -7 5 -25 -11 -25 -6 0 -8 3 -5 6 3 4 2 15 -3 25 -7 12 -6 19 3 22 9
4 9 6 -1 6 -7 1 -10 6 -6 13 4 7 3 8 -5 4 -6 -4 -9 -12 -5 -17 3 -6 -4 -7 -19
-4 -14 4 -28 2 -32 -4 -3 -6 -10 -9 -14 -7 -4 3 -8 -1 -8 -9 0 -8 4 -12 8 -10
4 3 10 -2 13 -10 4 -12 10 -14 25 -5 17 8 20 7 18 -10 -1 -15 -7 -19 -22 -15
-11 3 -14 2 -7 -1 6 -3 9 -10 6 -16 -4 -6 3 -5 15 2 12 6 19 15 16 21 -4 5 -2
9 4 9 17 0 20 -15 5 -35 -8 -10 -14 -15 -14 -10 0 5 -5 4 -12 -3 -9 -9 -9 -15
1 -25 10 -10 11 -9 6 5 -5 13 -2 16 14 13 11 -2 23 0 26 6 4 5 13 9 22 9 11 0
9 -5 -8 -20 -13 -10 -20 -19 -16 -20 4 0 17 9 29 20 30 28 46 25 20 -3 -16
-17 -18 -26 -11 -37 9 -13 10 -12 5 2 -3 10 -1 20 4 23 6 4 10 1 10 -5 0 -6 5
-8 10 -5 6 3 10 1 10 -4 0 -6 -4 -11 -10 -11 -5 0 -10 -4 -10 -10 0 -16 17
-11 24 7 5 11 1 22 -9 29 -10 7 -12 15 -6 18 5 4 16 -3 25 -15 13 -20 13 -25
0 -51 -15 -28 -15 -29 5 -19 11 6 18 17 16 24 -4 8 5 12 25 12 19 1 29 -4 26
-11 -2 -6 7 -24 21 -40 13 -16 22 -24 19 -17 -4 6 -3 13 1 16 5 2 2 2 -6 0 -8
-2 -11 2 -8 11 3 7 1 18 -5 24 -6 6 -6 12 1 16 6 4 11 3 11 -3 0 -5 7 -17 16
-25 11 -12 20 -13 34 -6 11 6 21 6 25 1 3 -5 -4 -12 -15 -16 -11 -3 -20 -11
-20 -16 0 -13 17 -11 24 4 3 8 11 5 24 -10 16 -18 21 -20 26 -8 3 8 12 12 21
9 8 -3 12 -11 8 -18 -4 -6 1 -4 11 4 16 13 20 12 31 -3 11 -16 13 -15 13 8 0
18 -5 25 -14 21 -7 -3 -11 0 -8 7 2 7 13 13 23 14 16 1 19 -4 15 -30 -2 -22
-1 -28 6 -17 5 8 12 11 16 7 4 -3 1 -13 -6 -22 -21 -25 -3 -17 25 11 24 24 25
28 11 42 -14 14 -15 14 -11 -7 2 -14 0 -21 -7 -19 -17 6 -18 31 -2 46 8 7 14
8 14 3 0 -5 8 -8 18 -6 10 2 25 -1 33 -6 12 -7 12 -9 -1 -10 -8 -1 -19 -1 -23
0 -4 1 -3 -8 3 -19 6 -11 7 -20 2 -20 -4 0 -16 -6 -26 -13 -16 -12 -16 -13 4
-14 11 -1 18 2 15 7 -3 4 2 11 11 14 10 4 14 1 12 -6 -3 -7 9 -22 26 -34 17
-11 30 -26 28 -33 -1 -7 2 -9 8 -6 8 5 5 14 -7 28 -17 20 -17 20 0 14 11 -4
16 -3 12 3 -4 6 -12 10 -18 9 -29 -4 -38 2 -35 24 2 13 -2 21 -9 20 -7 -2 -13
2 -13 7 0 6 6 10 13 11 6 0 20 2 30 4 9 2 15 -1 11 -6 -3 -5 -10 -6 -16 -3 -7
4 -8 2 -4 -5 4 -6 12 -8 19 -4 6 4 35 7 65 8 34 1 57 7 63 16 5 8 9 10 9 5 0
-5 7 -3 15 4 8 7 15 9 15 6 0 -4 7 0 16 8 8 9 20 14 25 11 5 -4 9 -1 9 5 0 7
6 5 15 -4 18 -18 20 -30 3 -19 -19 11 -37 12 -44 2 -3 -5 0 -8 7 -7 6 2 14 -3
16 -10 6 -14 -18 -12 -30 3 -4 6 -10 0 -13 -13 -5 -18 -9 -21 -16 -10 -6 9 -7
6 -3 -9 5 -19 3 -22 -12 -16 -17 6 -17 6 -1 -10 17 -17 33 -23 24 -9 -6 10 16
46 32 49 6 2 12 -2 12 -7 0 -6 -4 -10 -9 -10 -5 0 -12 -8 -15 -17 -6 -15 -4
-14 14 2 16 14 23 16 32 7 7 -7 16 -12 21 -12 5 0 -1 9 -14 20 -13 10 -19 19
-12 20 6 0 15 -5 19 -11 4 -8 9 -7 15 2 7 11 9 9 10 -6 1 -11 0 -26 -1 -34 -1
-11 2 -10 15 3 16 15 41 13 31 -3 -3 -4 1 -8 8 -8 18 0 9 24 -11 31 -8 3 -19
3 -25 0 -6 -4 -8 -1 -6 7 3 8 14 13 24 11 10 -2 31 -5 46 -7 20 -3 30 1 39 16
10 19 12 19 28 5 10 -9 22 -16 27 -16 5 0 3 4 -5 9 -12 8 -12 12 -2 25 8 9 18
16 23 16 6 0 6 -6 -1 -14 -8 -10 -9 -16 -1 -21 16 -10 27 2 28 30 0 20 -4 24
-18 20 -9 -3 -23 1 -30 10 -8 9 -8 15 -2 15 6 0 14 -5 17 -10 4 -7 12 -7 25 0
27 14 29 13 25 -17 -2 -16 -2 -22 1 -15 8 17 27 15 20 -3 -3 -8 -1 -15 4 -15
16 0 11 30 -5 36 -8 4 -12 11 -8 17 4 6 16 -1 31 -19 13 -16 21 -23 17 -16 -3
7 0 15 9 18 8 3 17 12 20 20 4 10 2 12 -6 8 -8 -5 -9 -2 -4 12 5 10 9 24 9 31
0 7 6 14 14 17 10 4 11 1 3 -14 -14 -26 -13 -27 15 -27 14 0 25 3 25 8 0 5 5
9 11 9 5 0 7 -4 4 -10 -3 -5 -1 -10 5 -10 7 0 9 7 6 16 -4 11 -2 15 8 11 9 -4
17 2 21 13 4 12 12 17 23 14 14 -5 14 -4 2 4 -8 6 -18 8 -22 6 -10 -6 -11 10
-1 19 3 4 13 2 20 -5 11 -9 16 -9 23 2 5 8 6 18 4 22 -3 4 -1 8 5 8 18 0 19
-15 1 -47 -9 -18 -21 -29 -25 -25 -5 4 -5 1 -1 -5 10 -18 15 -16 26 12 6 17
15 23 30 20 11 -2 20 1 20 7 0 5 -6 8 -14 5 -9 -4 -13 2 -13 18 0 17 4 21 18
18 10 -3 16 -10 12 -16 -3 -6 -1 -7 6 -3 15 10 4 26 -17 26 -13 0 -14 2 -3 12
10 11 16 8 32 -11 10 -13 19 -20 19 -16 0 9 -41 61 -46 58 -13 -8 -16 -1 -4 7
11 7 19 5 29 -8 12 -15 12 -14 6 8 -7 22 -6 23 9 11 14 -12 16 -12 10 3 -4 11
-13 15 -28 10 -20 -6 -20 -5 -4 11 14 16 18 16 37 3 11 -8 19 -17 16 -20 -3
-2 2 -5 12 -5 13 0 12 3 -5 18 -19 15 -20 18 -7 29 9 7 13 15 10 18 -2 3 2 10
10 16 10 7 12 16 6 25 -8 12 -12 12 -25 2 -9 -8 -16 -9 -16 -3 0 10 32 27 38
20 2 -2 8 5 13 15 6 9 16 17 23 17 7 0 21 9 31 20 13 14 21 17 26 9 4 -7 14
-9 23 -6 18 7 22 27 5 27 -5 0 -7 -4 -4 -10 3 -5 1 -10 -4 -10 -6 0 -11 7 -11
15 0 8 5 15 11 15 5 0 8 4 5 9 -8 13 21 34 38 28 7 -3 19 0 25 6 6 6 11 7 11
1 0 -21 -23 -33 -43 -23 -15 9 -18 8 -12 -2 6 -8 4 -10 -5 -4 -8 5 -11 4 -6
-3 9 -15 49 -11 63 8 6 8 14 12 18 8 4 -3 -2 -15 -14 -27 l-20 -20 26 2 c15 1
28 8 29 15 1 7 0 8 -3 2 -2 -5 -9 -10 -14 -10 -7 0 -6 6 0 17 7 13 5 23 -5 34
-14 15 -13 17 10 15 20 -1 24 -5 20 -20 -4 -13 -2 -16 6 -11 7 4 9 17 6 31 -8
30 2 31 14 2 l10 -23 -3 24 c-1 13 4 26 11 28 7 3 10 -1 6 -10 -3 -8 -1 -18 5
-22 7 -3 8 0 5 9 -5 14 14 16 55 5 8 -2 17 7 21 23 6 19 4 25 -4 22 -7 -3 -12
4 -12 16 0 11 4 20 7 20 12 0 49 -57 42 -64 -3 -3 -1 -6 5 -6 15 0 15 6 1 32
-10 18 -9 20 7 14 10 -4 15 -4 12 0 -4 3 2 14 13 23 20 16 18 51 -3 51 -5 0
-6 5 -3 10 5 8 12 7 23 -2 10 -7 14 -8 10 -4 -4 5 -1 14 7 20 11 8 12 15 4 26
-9 13 -10 13 -6 -2 8 -23 -13 -28 -43 -9 -14 8 -22 11 -18 7 4 -5 3 -17 -3
-27 -8 -15 -14 -17 -29 -9 -11 6 -20 15 -20 21 0 6 7 6 20 -1 14 -7 20 -7 20
0 0 5 -6 10 -14 10 -8 0 -22 10 -30 22 l-15 22 -22 -28 c-28 -36 -35 -27 -10
15 11 18 18 36 15 41 -9 14 -41 9 -55 -9 -8 -9 -9 -14 -3 -10 7 4 14 0 18 -8
6 -18 2 -19 -26 -4 -15 8 -19 8 -14 0 8 -12 -6 -15 -18 -4 -3 4 6 17 20 30 15
13 24 26 21 29 -3 4 -18 -8 -33 -25 -14 -18 -29 -29 -32 -26 -3 2 3 14 13 25
10 11 14 20 9 20 -5 0 -2 5 6 11 10 7 11 9 2 7 -8 -2 -14 -8 -15 -13 -2 -17
-19 -31 -39 -31 -10 0 -16 5 -14 11 2 5 10 9 17 7 8 -2 11 0 7 4 -4 4 -1 12 7
18 11 8 12 15 4 26 -9 13 -10 13 -6 -2 3 -9 -1 -19 -9 -22 -8 -3 -14 -1 -14 4
0 6 -5 10 -11 10 -8 0 -9 -4 0 -13 10 -13 6 -27 -9 -27 -14 0 -8 45 8 57 16
12 16 13 0 7 -15 -5 -17 13 -17 221 -1 247 -4 264 -61 306 -14 11 -119 47
-234 82 l-210 63 -2 64 c-6 180 -32 360 -75 533 -16 65 -20 117 -22 319 l-1
240 34 17 c19 9 66 30 103 46 75 32 126 80 128 123 1 15 3 47 4 72 4 68 4 72
13 66 5 -3 42 -12 83 -21 41 -9 79 -17 84 -19 125 -33 165 -31 253 9 160 73
252 259 244 495 -7 234 -144 424 -330 460 -26 5 -94 20 -152 33 -63 15 -123
24 -150 21 l-45 -4 0 225 c0 124 2 225 5 225 3 0 34 -9 70 -20 40 -13 75 -18
95 -14 34 7 240 96 288 124 43 25 68 70 69 123 0 36 -7 55 -40 103 -36 54
-150 174 -196 207 -17 13 -15 16 35 44 83 48 138 91 159 126 38 61 17 152 -43
192 -21 13 -181 63 -617 192 -47 14 -87 27 -89 29 -3 3 -4 49 -2 103 2 106 -9
151 -47 185 -12 10 -99 42 -194 71 -565 173 -808 245 -848 249 -25 3 -85 10
-135 16 -144 16 -160 18 -375 40 -113 12 -234 23 -270 26 -36 3 -81 7 -100 9
-19 2 -75 7 -125 10 -49 3 -103 8 -120 10 -16 2 -79 6 -140 9 -91 5 -121 2
-175 -14z m457 -3259 c453 -93 867 -520 1008 -1038 12 -46 19 -83 16 -83 -6 0
-194 56 -586 174 -82 24 -348 104 -590 176 -242 72 -448 133 -459 136 -16 6
-18 13 -12 79 9 105 40 216 86 312 41 85 123 193 163 215 75 41 250 55 374 29z
m-2052 -1380 c3 -5 1 -12 -4 -15 -5 -3 -11 1 -15 9 -6 16 9 21 19 6z m402
-148 c-11 -10 -26 8 -20 23 5 15 7 14 15 -1 6 -9 7 -19 5 -22z m862 -244 c-16
-10 -23 -4 -14 10 3 6 11 8 17 5 6 -4 5 -9 -3 -15z m371 -99 c0 -5 -4 -10 -10
-10 -5 0 -10 5 -10 10 0 6 5 10 10 10 6 0 10 -4 10 -10z m680 -199 c0 -5 -7
-14 -15 -21 -16 -14 -18 -10 -9 14 6 17 24 22 24 7z m2435 -181 c2 -12 7 -25
10 -29 3 -3 4 9 0 27 -6 36 9 44 20 10 4 -15 8 -18 12 -10 4 10 8 10 19 1 13
-10 12 -14 -2 -30 -9 -10 -21 -16 -27 -12 -5 3 1 12 14 19 24 13 24 13 2 11
-13 -1 -24 -5 -24 -9 -3 -19 -5 -24 -12 -35 -5 -7 -4 -13 2 -13 5 0 11 3 14 8
2 4 2 1 0 -6 -1 -8 2 -10 9 -6 6 4 8 3 4 -4 -3 -6 -1 -14 5 -18 7 -4 9 -3 6 2
-3 6 5 10 18 10 17 0 21 -3 15 -11 -6 -7 -7 -14 -4 -18 15 -15 -28 1 -48 18
-21 18 -21 17 2 -10 18 -22 19 -25 4 -12 -11 9 -24 14 -29 10 -4 -5 -5 -2 0 6
6 10 4 12 -5 6 -9 -5 -11 -4 -6 4 4 6 2 19 -6 28 -7 9 -13 35 -13 59 -1 44 12
47 20 4z m149 25 c-4 -8 -10 -15 -14 -15 -4 0 -10 7 -14 15 -4 10 1 15 14 15
13 0 18 -5 14 -15z m-26 -43 c-8 -9 -13 -10 -18 -2 -5 8 -9 6 -13 -5 -4 -9 -3
-13 3 -10 6 3 10 2 10 -4 0 -14 26 -7 49 13 21 19 43 14 35 -8 -3 -8 5 -21 18
-30 29 -21 35 -20 43 4 3 11 11 20 17 20 7 0 7 -5 -1 -14 -9 -10 -8 -16 4 -26
21 -17 19 -23 -13 -42 -26 -16 -30 -16 -44 -1 -29 28 -43 -3 -23 -50 10 -25 2
-30 -21 -11 -10 8 -14 13 -8 10 14 -7 11 31 -4 46 -7 7 -12 19 -12 27 0 11 4
10 15 -5 13 -16 14 -16 9 -1 -4 10 -1 17 6 17 6 0 8 -5 4 -11 -5 -8 -1 -8 14
0 24 13 43 15 24 2 -11 -7 -11 -9 1 -14 21 -8 55 17 37 28 -9 5 -11 4 -6 -3 4
-7 3 -12 -3 -12 -5 0 -13 5 -16 10 -4 6 -16 8 -27 4 -15 -4 -18 -3 -13 6 6 9
4 11 -5 5 -9 -6 -11 -4 -5 5 4 7 2 16 -6 21 -20 13 -29 11 -29 -5 0 -8 -7 -17
-16 -20 -13 -5 -14 -9 -4 -21 7 -8 9 -15 4 -15 -5 0 -2 -5 6 -10 11 -8 8 -9
-13 -6 -15 3 -25 1 -22 -4 3 -5 -4 -7 -15 -5 -11 2 -20 -1 -20 -7 0 -5 -7 -7
-16 -4 -8 3 -13 2 -10 -3 3 -5 -4 -8 -17 -7 -12 0 -22 -3 -22 -9 0 -5 -4 -16
-9 -24 -6 -9 -5 -12 0 -8 6 3 16 2 22 -2 10 -6 9 -11 -4 -22 -15 -12 -17 -12
-9 0 6 11 4 13 -9 8 -10 -4 -15 -3 -11 3 3 6 0 10 -7 10 -8 0 -9 3 -2 8 11 8
12 71 0 90 -4 7 -2 12 4 12 6 0 8 5 4 12 -4 7 -3 8 5 4 6 -4 9 -11 6 -16 -3
-4 2 -13 10 -20 8 -7 15 -9 15 -5 0 5 8 1 18 -8 10 -10 22 -14 26 -10 4 5 13
8 19 8 7 0 12 5 12 12 0 6 3 15 8 19 15 15 6 24 -18 20 -34 -6 -43 13 -17 35
12 9 22 22 22 27 0 5 11 9 24 8 19 -1 22 -4 14 -14z m-1898 -1 c0 -17 -18 -21
-24 -6 -3 9 0 15 9 15 8 0 15 -4 15 -9z m1944 -54 c-2 -7 -13 -13 -24 -14 -18
-2 -18 -1 -2 16 18 19 34 18 26 -2z m-17 -72 c2 -6 0 -18 -3 -28 -4 -14 -9
-16 -20 -6 -11 9 -17 9 -29 -1 -9 -7 -15 -8 -15 -2 0 14 26 23 48 16 16 -5 16
-5 0 6 -12 7 -24 8 -37 1 -10 -6 -21 -7 -25 -3 -4 3 -5 0 -2 -8 3 -8 2 -21 -2
-28 -7 -10 -13 -10 -33 1 -28 15 -36 36 -11 32 9 -1 29 4 45 12 15 7 27 10 27
6 0 -4 5 -2 10 3 13 13 44 12 47 -1z m-727 -245 c0 -3 -13 -14 -28 -25 -17
-12 -22 -13 -15 -4 7 9 9 20 5 24 -4 5 -1 5 6 1 6 -4 12 -3 12 1 0 5 -6 15
-12 22 -10 11 -8 10 10 0 12 -8 22 -16 22 -19z m385 0 c3 6 11 8 16 4 6 -3 3
-12 -8 -20 -10 -7 -14 -14 -10 -14 4 0 2 -6 -5 -14 -7 -8 -16 -12 -21 -9 -4 2
-19 -5 -33 -16 -15 -12 -21 -21 -13 -21 11 0 11 -2 -1 -9 -8 -6 -18 -7 -22 -5
-7 5 -10 -3 -7 -22 0 -4 -5 -11 -13 -16 -10 -8 -10 -9 2 -5 8 2 14 10 12 17
-1 6 2 10 8 8 19 -6 14 -22 -11 -35 -13 -7 -25 -17 -25 -23 -3 -22 -4 -24 -16
-12 -9 9 -17 7 -37 -11 -13 -12 -21 -17 -18 -10 10 15 -20 10 -36 -7 -8 -9 -8
-11 0 -6 6 3 15 2 18 -4 5 -8 11 -7 21 1 8 6 17 9 21 5 3 -3 4 -7 2 -8 -36
-22 -69 -35 -70 -28 -1 6 -2 15 -3 22 -1 13 -36 20 -36 7 0 -28 -17 -59 -32
-59 -7 0 -6 5 2 15 9 10 9 15 1 15 -6 0 -11 -5 -11 -12 0 -6 -3 -8 -7 -4 -4 4
3 16 17 28 14 11 19 17 12 13 -7 -4 -20 -1 -29 7 -14 11 -16 11 -8 -1 6 -10 4
-12 -5 -6 -9 6 -11 4 -5 -6 7 -12 5 -12 -6 -1 -12 11 -12 14 1 22 11 7 11 10
2 10 -7 0 -15 -6 -18 -14 -3 -8 -13 -12 -22 -9 -15 4 -15 3 -2 -6 9 -7 11 -11
3 -11 -7 0 -17 8 -23 18 -8 14 -9 12 -5 -12 6 -43 20 -52 48 -33 22 14 24 14
35 -4 11 -18 10 -19 -14 -15 -15 3 -35 1 -44 -4 -11 -6 -21 -5 -28 2 -8 8 -15
9 -22 2 -8 -8 -6 -15 4 -23 14 -11 14 -15 1 -28 -8 -8 -19 -12 -24 -8 -5 3
-12 1 -16 -5 -3 -5 -11 -10 -16 -10 -6 0 -7 4 -4 10 3 5 0 7 -8 4 -8 -3 -14 1
-14 10 0 8 9 14 19 13 10 -1 18 -4 18 -7 0 -4 7 -7 14 -7 12 0 13 5 4 20 -8
15 -7 18 3 12 8 -5 10 -4 5 3 -11 18 -29 14 -22 -4 5 -14 4 -15 -9 -4 -8 7
-12 17 -9 22 4 6 -1 6 -13 -1 -14 -7 -24 -7 -33 2 -10 8 -10 6 0 -7 12 -16 13
-18 1 -11 -9 5 -12 4 -7 -3 8 -13 -12 -10 -39 6 -11 6 -14 12 -7 12 20 0 26 3
41 17 10 10 17 11 24 4 17 -17 31 -13 17 4 -11 13 -8 20 4 13 3 -2 15 7 28 19
19 18 27 20 36 11 9 -9 12 -9 12 -1 0 7 -5 15 -11 18 -7 5 -6 12 4 23 8 10 13
37 13 64 -1 25 2 44 6 42 4 -3 6 -18 4 -34 -2 -17 -2 -30 -1 -30 13 0 35 14
35 22 0 5 -4 6 -10 3 -5 -3 -10 -1 -10 5 0 7 7 9 16 6 12 -4 15 -2 10 9 -3 8
-1 15 5 15 5 0 14 10 19 23 5 12 9 16 9 9 1 -7 8 -20 16 -29 8 -8 12 -20 8
-26 -4 -6 0 -8 9 -5 11 5 14 0 12 -18 -1 -13 0 -24 3 -24 13 0 43 22 43 32 0
7 -5 6 -15 -2 -10 -9 -15 -9 -15 -1 0 6 6 11 13 12 6 0 2 5 -10 11 -13 6 -23
15 -23 20 0 5 14 0 30 -12 17 -12 30 -26 30 -32 0 -7 11 -1 24 11 14 13 29 20
35 16 16 -9 2 -28 -15 -21 -16 6 -17 4 -8 -18 3 -9 10 -16 16 -16 5 0 6 5 3
10 -6 10 7 14 34 10 9 -1 6 8 -8 29 -26 36 -28 37 -53 15 -14 -14 -20 -14 -33
-4 -21 17 -13 55 13 56 14 1 19 -3 14 -14 -4 -11 -7 -12 -10 -4 -6 19 -18 14
-19 -8 -1 -13 2 -18 9 -14 7 4 8 2 4 -4 -10 -16 2 -15 19 2 8 7 11 17 7 20 -3
4 1 4 10 1 9 -4 19 -1 23 4 3 6 11 9 16 5 5 -3 16 0 24 6 16 13 19 6 16 -30
-1 -11 3 -10 14 4 12 16 12 22 2 28 -9 6 -9 8 1 8 6 0 14 -1 17 -2 2 -2 12 7
20 19 10 14 21 20 32 16 12 -5 14 -3 8 8 -7 12 -6 12 7 1 11 -9 18 -10 23 -2z
m-311 -25 c-10 -8 -23 -15 -28 -15 -6 0 -1 7 10 15 10 8 23 15 28 15 6 0 1 -7
-10 -15z m-49 -5 c3 -6 -1 -7 -9 -4 -18 7 -21 14 -7 14 6 0 13 -4 16 -10z
m100 1 c-3 -2 -16 -6 -28 -8 -15 -2 -18 0 -9 5 14 9 45 12 37 3z m-112 -17
c11 -11 -5 -34 -23 -34 -18 0 -34 23 -23 34 4 3 14 6 23 6 9 0 19 -3 23 -6z
m67 -14 c0 -5 -4 -10 -10 -10 -5 0 -10 5 -10 10 0 6 5 10 10 10 6 0 10 -4 10
-10z m27 -12 c-3 -8 -6 -5 -6 6 -1 11 2 17 5 13 3 -3 4 -12 1 -19z m-1173
-114 c9 -8 16 -18 16 -22 0 -3 -5 -1 -12 6 -7 7 -17 8 -29 2 -12 -7 -19 -6
-22 5 -5 12 5 22 25 24 4 1 14 -6 22 -15z m60 -14 c3 -11 9 -29 12 -41 5 -18
3 -19 -14 -10 -16 8 -21 7 -26 -6 -4 -9 -9 -13 -12 -10 -4 3 3 19 14 35 16 22
18 32 10 40 -9 9 -9 12 -1 12 7 0 14 -9 17 -20z m46 -29 c0 -6 9 -8 20 -6 11
2 20 0 20 -4 0 -4 6 -8 13 -9 43 -3 52 -10 51 -36 -1 -31 -1 -31 17 -9 9 11
10 14 2 9 -9 -5 -11 -2 -6 10 4 10 8 13 10 7 3 -7 10 -10 17 -7 8 3 20 -2 29
-10 19 -19 31 -21 21 -3 -4 6 2 4 13 -6 11 -10 27 -15 37 -11 9 3 16 1 16 -5
0 -6 3 -10 8 -10 24 4 34 -3 28 -18 -5 -15 -4 -15 9 1 8 11 15 14 15 7 0 -7 4
-10 8 -7 4 2 14 1 21 -3 9 -6 10 -11 2 -15 -6 -4 -11 -2 -11 5 0 8 -3 9 -13 0
-8 -6 -17 -8 -20 -5 -3 4 -12 -5 -18 -19 -9 -20 -16 -24 -29 -17 -10 6 -21 5
-27 -1 -6 -6 -14 -5 -22 4 -9 12 -6 14 21 13 18 0 33 2 33 5 0 3 7 14 15 25
14 19 14 19 -7 0 -22 -18 -22 -18 -18 3 2 14 0 19 -7 15 -7 -5 -8 -2 -3 5 6
10 3 11 -11 3 -14 -7 -25 -6 -38 4 -10 7 -23 11 -29 7 -6 -3 -7 -1 -3 5 5 8 1
10 -10 5 -15 -5 -14 -7 2 -17 11 -5 26 -10 34 -11 8 0 14 -7 12 -15 -3 -12 -1
-13 9 -2 18 17 25 15 26 -8 1 -11 -2 -20 -8 -20 -5 0 -9 5 -9 12 0 6 -3 8 -7
5 -3 -4 -12 -2 -20 4 -9 8 -17 8 -26 0 -16 -12 -38 4 -31 23 3 8 -11 12 -43
11 -26 0 -49 3 -50 8 -2 4 -19 21 -38 38 -38 33 -44 49 -20 49 8 0 15 -4 15
-9z m984 -32 c-3 -5 -10 -7 -15 -4 -5 4 -9 1 -9 -4 0 -16 -17 -13 -23 3 -4 10
-1 13 7 10 8 -3 17 0 21 5 3 6 11 9 16 5 5 -3 7 -10 3 -15z m61 -49 c-3 -5
-10 -10 -16 -10 -5 0 -9 5 -9 10 0 6 7 10 16 10 8 0 12 -4 9 -10z m-201 -9 c3
-5 -2 -8 -11 -7 -24 2 -23 -26 1 -46 21 -17 20 -18 -14 -12 -19 3 -52 6 -72 7
-20 1 -43 9 -50 17 -11 12 -11 12 4 2 21 -16 35 2 18 23 -10 13 -8 15 12 15
14 0 28 -3 32 -7 12 -13 35 -11 47 3 13 16 25 18 33 5z m106 -41 c0 -5 -5 -10
-11 -10 -5 0 -7 5 -4 10 3 6 8 10 11 10 2 0 4 -4 4 -10z"/>
<path d="M5694 990 c1 -14 6 -24 9 -22 11 4 11 6 -1 27 -11 19 -12 18 -8 -5z"/>
<path d="M5765 969 c-4 -6 -5 -12 -2 -15 2 -3 7 2 10 11 7 17 1 20 -8 4z"/>
<path d="M5786 961 c-3 -4 4 -7 14 -6 27 2 33 10 10 12 -11 1 -22 -2 -24 -6z"/>
<path d="M5806 921 c-4 -5 -2 -12 3 -15 5 -4 12 -2 15 3 4 5 2 12 -3 15 -5 4
-12 2 -15 -3z"/>
<path d="M5694 885 c0 -20 3 -22 15 -12 8 7 16 11 18 10 1 -2 3 0 3 5 0 4 -3
7 -7 7 -5 0 -13 3 -18 7 -7 4 -11 -3 -11 -17z"/>
<path d="M5742 833 c5 -7 14 -10 19 -7 16 10 9 23 -10 21 -15 -1 -17 -4 -9
-14z"/>
<path d="M5449 598 c-6 -10 -15 -15 -21 -12 -6 4 -8 3 -5 -3 8 -13 -22 -55
-34 -48 -5 3 -6 -2 -3 -12 5 -17 5 -17 -6 0 -9 14 -9 21 0 32 11 13 1 14 -50
6 -3 -1 0 -5 5 -9 6 -4 18 -19 27 -34 15 -23 15 -28 3 -38 -12 -10 -15 -10
-15 1 0 8 -6 5 -15 -7 -14 -18 -16 -18 -28 -2 -15 18 -30 18 -65 0 -22 -13
-47 -8 -37 8 3 4 -2 13 -10 20 -8 7 -13 16 -10 20 3 4 -2 13 -10 20 -13 11
-17 8 -26 -19 -6 -17 -23 -38 -38 -45 l-26 -14 27 1 c14 1 24 5 22 9 -3 4 3 5
12 1 13 -5 15 -3 9 8 -8 12 -6 12 8 0 10 -8 17 -9 17 -3 0 6 -8 16 -17 22 -17
11 -17 11 0 6 10 -3 21 -6 23 -6 2 0 4 -9 4 -19 0 -11 6 -22 13 -24 10 -4 10
-6 0 -6 -21 -2 -15 -17 7 -18 11 -1 18 2 15 7 -3 5 0 12 6 16 8 5 10 2 5 -7
-4 -8 0 -5 8 5 9 11 16 15 16 10 0 -6 7 -11 15 -11 9 0 14 6 11 14 -8 20 2 16
14 -6 8 -16 7 -19 -8 -16 -9 1 -23 -2 -29 -8 -7 -5 -13 -6 -13 -2 0 4 -7 2
-15 -5 -8 -6 -20 -8 -26 -4 -8 4 -9 3 -5 -4 4 -7 3 -12 -2 -12 -5 0 -15 14
-22 30 -11 26 -25 33 -25 12 0 -4 -4 -13 -9 -20 -6 -11 -12 -10 -27 4 -15 14
-21 15 -34 4 -9 -7 -13 -15 -10 -18 12 -12 57 -12 71 -1 11 9 18 8 33 -5 14
-13 25 -15 38 -9 10 5 25 9 33 8 8 -1 22 4 30 11 8 6 23 10 32 9 9 -2 22 3 29
11 9 11 15 12 28 2 9 -7 13 -8 9 -4 -4 5 -3 15 3 23 6 7 9 13 5 13 -4 0 1 14
9 30 9 18 21 28 27 24 6 -4 8 -3 5 3 -6 9 52 60 64 56 3 -1 6 4 6 10 0 19 -37
15 -48 -5z m7 -16 c-17 -16 -18 -16 -5 5 7 12 15 20 18 17 3 -2 -3 -12 -13
-22z m-106 -116 c0 -2 -8 -10 -17 -17 -16 -13 -17 -12 -4 4 13 16 21 21 21 13z
m-246 -34 c3 -5 -1 -9 -9 -9 -8 0 -12 4 -9 9 3 4 7 8 9 8 2 0 6 -4 9 -8z"/>
<path d="M5120 445 c7 -8 17 -12 22 -9 6 4 5 10 -3 15 -22 14 -33 10 -19 -6z"/>
<path d="M5030 375 c-7 -8 -16 -12 -21 -9 -5 3 -9 3 -9 0 0 -3 13 -12 29 -20
20 -11 31 -12 39 -4 8 8 16 7 28 -3 17 -13 17 -13 1 12 -10 14 -15 28 -13 30
3 3 -6 6 -18 7 -13 1 -29 -5 -36 -13z m49 -4 c2 -1 -2 -8 -9 -16 -10 -12 -16
-13 -26 -4 -8 6 -12 15 -9 19 4 7 13 7 44 1z"/>
<path d="M5046 358 c3 -5 10 -6 15 -3 13 9 11 12 -6 12 -8 0 -12 -4 -9 -9z"/>
<path d="M4936 318 c3 -5 10 -6 15 -3 13 9 11 12 -6 12 -8 0 -12 -4 -9 -9z"/>
<path d="M5108 568 c9 -9 15 -9 24 0 9 9 7 12 -12 12 -19 0 -21 -3 -12 -12z"/>
<path d="M4165 381 c21 -25 62 -51 51 -33 -3 6 -2 13 3 16 5 3 11 -1 15 -9 3
-8 -3 -19 -12 -25 -16 -9 -7 -9 37 -1 2 1 -2 8 -9 16 -11 13 -10 14 4 9 9 -3
16 -2 16 3 0 5 -6 10 -12 11 -7 0 -24 3 -38 7 -14 3 -29 7 -35 8 -5 2 -17 7
-25 12 -9 5 -6 -1 5 -14z m40 -19 c-3 -3 -11 0 -18 7 -9 10 -8 11 6 5 10 -3
15 -9 12 -12z"/>
<path d="M4299 333 c-13 -17 -13 -17 6 -3 11 8 22 16 24 17 2 2 0 3 -6 3 -6 0
-17 -8 -24 -17z"/>
<path d="M4316 301 c-4 -5 -2 -12 3 -15 5 -4 12 -2 15 3 4 5 2 12 -3 15 -5 4
-12 2 -15 -3z"/>
<path d="M4911 279 c5 -11 15 -17 20 -13 14 9 6 27 -14 30 -14 2 -15 -1 -6
-17z"/>
<path d="M4953 274 c0 -7 4 -11 8 -8 4 2 9 -2 12 -8 3 -7 5 -4 4 8 -1 22 -24
30 -24 8z"/>
<path d="M686 2062 c-3 -5 1 -9 9 -9 8 0 12 4 9 9 -3 4 -7 8 -9 8 -2 0 -6 -4
-9 -8z"/>
<path d="M710 2026 c0 -2 7 -7 16 -10 8 -3 12 -2 9 4 -6 10 -25 14 -25 6z"/>
<path d="M630 1980 c0 -5 5 -10 11 -10 5 0 7 5 4 10 -3 6 -8 10 -11 10 -2 0
-4 -4 -4 -10z"/>
<path d="M756 1967 c3 -10 9 -15 12 -12 3 3 0 11 -7 18 -10 9 -11 8 -5 -6z"/>
<path d="M776 1943 c-6 -14 -5 -15 5 -6 7 7 10 15 7 18 -3 3 -9 -2 -12 -12z"/>
<path d="M726 1922 c-3 -5 1 -9 9 -9 8 0 15 4 15 9 0 4 -4 8 -9 8 -6 0 -12 -4
-15 -8z"/>
<path d="M785 1919 c-4 -6 -4 -13 -1 -16 3 -4 6 -1 6 6 0 7 5 9 10 6 6 -3 10
-1 10 4 0 14 -17 14 -25 0z"/>
<path d="M809 1885 c-9 -17 -8 -18 3 -5 20 23 49 25 42 3 -5 -15 -4 -15 4 -3
6 8 9 17 6 21 -9 15 -46 4 -55 -16z"/>
<path d="M676 1878 c3 -5 10 -6 15 -3 13 9 11 12 -6 12 -8 0 -12 -4 -9 -9z"/>
<path d="M826 1863 c-6 -14 -5 -15 5 -6 7 7 10 15 7 18 -3 3 -9 -2 -12 -12z"/>
<path d="M975 1870 c-3 -5 -1 -10 4 -10 6 0 11 5 11 10 0 6 -2 10 -4 10 -3 0
-8 -4 -11 -10z"/>
<path d="M873 1852 c0 -11 5 -18 9 -16 4 3 8 0 8 -7 0 -7 3 -10 6 -6 3 3 -1
16 -9 28 -16 22 -16 22 -14 1z"/>
<path d="M995 1849 c-4 -11 -4 -23 -1 -26 3 -4 6 1 6 11 0 9 5 14 10 11 6 -4
7 -11 4 -17 -4 -6 -2 -8 4 -4 6 3 15 -2 21 -11 6 -10 11 -14 11 -9 0 4 -11 21
-24 37 -24 28 -25 28 -31 8z"/>
<path d="M736 1842 c-3 -5 1 -9 9 -9 8 0 12 4 9 9 -3 4 -7 8 -9 8 -2 0 -6 -4
-9 -8z"/>
<path d="M950 1840 c0 -5 7 -7 15 -4 8 4 15 8 15 10 0 2 -7 4 -15 4 -8 0 -15
-4 -15 -10z"/>
<path d="M1057 1843 c-3 -5 3 -14 13 -21 14 -9 19 -8 24 4 4 9 2 12 -5 8 -6
-4 -15 -1 -19 6 -4 7 -10 8 -13 3z"/>
<path d="M917 1829 c7 -7 15 -10 18 -7 3 3 -2 9 -12 12 -14 6 -15 5 -6 -5z"/>
<path d="M1005 1800 c-3 -6 1 -7 9 -4 18 7 21 14 7 14 -6 0 -13 -4 -16 -10z"/>
<path d="M991 1773 c7 -12 15 -20 18 -17 3 2 -3 12 -13 22 -17 16 -18 16 -5
-5z"/>
<path d="M1116 1773 c-6 -14 -5 -15 5 -6 7 7 10 15 7 18 -3 3 -9 -2 -12 -12z"/>
<path d="M1264 1780 c1 -7 5 -11 10 -10 18 3 24 -24 9 -35 -13 -10 -13 -14 -3
-20 8 -5 11 -4 7 2 -4 6 0 14 8 17 13 4 14 10 5 26 -6 11 -15 18 -20 15 -4 -3
-11 0 -13 5 -4 7 -5 6 -3 0z"/>
<path d="M1075 1769 c-4 -6 -5 -12 -2 -15 2 -3 7 2 10 11 7 17 1 20 -8 4z"/>
<path d="M1196 1771 c-3 -5 1 -11 9 -14 9 -4 12 -1 8 9 -6 16 -10 17 -17 5z"/>
<path d="M956 1747 c3 -10 9 -15 12 -12 3 3 0 11 -7 18 -10 9 -11 8 -5 -6z"/>
<path d="M1137 1753 c-3 -5 6 -9 20 -10 19 -1 22 1 12 8 -17 11 -26 11 -32 2z"/>
<path d="M1250 1730 c-6 -11 -8 -20 -6 -20 3 0 10 9 16 20 6 11 8 20 6 20 -3
0 -10 -9 -16 -20z"/>
<path d="M1380 1738 c0 -4 9 -8 20 -8 11 0 20 4 20 8 0 4 -9 8 -20 8 -11 0
-20 -4 -20 -8z"/>
<path d="M1116 1718 c3 -5 10 -6 15 -3 13 9 11 12 -6 12 -8 0 -12 -4 -9 -9z"/>
<path d="M1461 1713 c-7 -8 -11 -16 -8 -19 2 -2 10 2 17 11 17 20 9 27 -9 8z"/>
<path d="M1386 1708 c3 -5 10 -6 15 -3 13 9 11 12 -6 12 -8 0 -12 -4 -9 -9z"/>
<path d="M1300 1704 c0 -1 8 -8 17 -15 9 -8 14 -9 10 -2 -4 6 -1 13 5 16 7 3
3 4 -9 4 -13 -1 -23 -2 -23 -3z"/>
<path d="M1415 1701 c-3 -5 0 -13 6 -17 7 -4 9 -3 5 4 -3 5 0 13 6 15 9 4 10
6 1 6 -6 1 -14 -3 -18 -8z"/>
<path d="M1390 1680 c0 -5 5 -10 11 -10 5 0 7 5 4 10 -3 6 -8 10 -11 10 -2 0
-4 -4 -4 -10z"/>
<path d="M1251 1647 c-13 -21 -12 -21 5 -5 10 10 16 20 13 22 -3 3 -11 -5 -18
-17z"/>
<path d="M1426 1662 c-3 -5 1 -9 9 -9 8 0 12 4 9 9 -3 4 -7 8 -9 8 -2 0 -6 -4
-9 -8z"/>
<path d="M1666 1655 c-11 -8 -16 -18 -12 -22 4 -4 11 -1 15 6 7 11 9 11 14 0
3 -8 4 -4 4 9 -1 12 -1 22 -2 22 0 0 -9 -7 -19 -15z"/>
<path d="M1517 1653 c-4 -3 -7 -11 -7 -17 0 -6 5 -5 12 2 6 6 9 14 7 17 -3 3
-9 2 -12 -2z"/>
<path d="M1615 1639 c-11 -16 -1 -19 13 -3 7 8 8 14 3 14 -5 0 -13 -5 -16 -11z"/>
<path d="M1735 1640 c3 -5 -3 -10 -14 -10 -25 0 -33 -12 -19 -30 8 -12 9 -12
4 2 -3 12 2 18 16 20 22 3 38 28 18 28 -6 0 -8 -4 -5 -10z"/>
<path d="M1416 1627 c3 -10 9 -15 12 -12 3 3 0 11 -7 18 -10 9 -11 8 -5 -6z"/>
<path d="M1632 1618 c2 -7 -2 -12 -9 -11 -12 2 -12 -23 0 -32 4 -3 5 -2 2 2
-3 3 2 14 11 24 10 11 12 19 4 24 -6 4 -9 1 -8 -7z"/>
<path d="M1827 1619 c7 -7 15 -10 18 -7 3 3 -2 9 -12 12 -14 6 -15 5 -6 -5z"/>
<path d="M1750 1610 c0 -5 7 -7 15 -4 8 4 15 8 15 10 0 2 -7 4 -15 4 -8 0 -15
-4 -15 -10z"/>
<path d="M1490 1599 c0 -5 5 -7 10 -4 6 3 10 8 10 11 0 2 -4 4 -10 4 -5 0 -10
-5 -10 -11z"/>
<path d="M1790 1601 c0 -6 8 -7 18 -4 15 6 15 5 3 -10 -12 -15 -12 -17 3 -11
9 4 15 12 13 18 -5 14 -37 21 -37 7z"/>
<path d="M1863 1600 c2 -8 10 -14 16 -12 6 1 11 -2 11 -7 0 -10 26 -22 58 -26
14 -2 20 1 15 8 -4 6 0 8 10 4 9 -3 19 -2 22 3 3 4 -6 7 -20 5 -14 -1 -25 2
-25 6 0 5 -5 9 -11 9 -8 0 -8 -5 1 -15 21 -26 -8 -18 -35 10 -14 13 -25 19
-25 12 0 -8 -4 -6 -11 3 -9 13 -10 13 -6 0z"/>
<path d="M1656 1567 c3 -10 9 -15 12 -12 3 3 0 11 -7 18 -10 9 -11 8 -5 -6z"/>
<path d="M1695 1570 c-3 -5 -2 -18 4 -27 7 -14 9 -12 8 10 -2 30 -3 31 -12 17z"/>
<path d="M1490 1560 c0 -5 5 -10 11 -10 5 0 7 5 4 10 -3 6 -8 10 -11 10 -2 0
-4 -4 -4 -10z"/>
<path d="M1815 1560 c-3 -5 -1 -10 4 -10 6 0 11 5 11 10 0 6 -2 10 -4 10 -3 0
-8 -4 -11 -10z"/>
<path d="M1865 1560 c3 -5 11 -10 16 -10 6 0 7 5 4 10 -3 6 -11 10 -16 10 -6
0 -7 -4 -4 -10z"/>
<path d="M1996 1555 c-20 -15 -33 -50 -15 -39 5 3 7 9 4 14 -3 4 2 10 10 14 8
3 15 1 15 -4 0 -6 5 -10 11 -10 8 0 9 4 0 13 -6 8 -8 17 -4 20 11 12 -1 7 -21
-8z"/>
<path d="M2050 1535 c-7 -8 -10 -18 -6 -22 3 -3 6 -1 6 5 0 16 43 9 48 -8 3
-8 0 -10 -8 -5 -9 6 -11 4 -5 -5 6 -10 11 -10 20 3 7 9 16 13 21 9 4 -4 3 0
-4 10 -7 9 -21 15 -30 13 -9 -1 -20 2 -23 7 -3 5 -12 2 -19 -7z"/>
<path d="M1855 1529 c-4 -6 -5 -12 -2 -15 2 -3 7 2 10 11 7 17 1 20 -8 4z"/>
<path d="M1946 1523 c-6 -14 -5 -15 5 -6 7 7 10 15 7 18 -3 3 -9 -2 -12 -12z"/>
<path d="M1795 1521 c-3 -5 -2 -12 3 -15 5 -3 9 1 9 9 0 17 -3 19 -12 6z"/>
<path d="M2138 1503 c-8 -10 -8 -17 1 -26 10 -9 11 -8 5 6 -5 13 -2 16 10 11
9 -3 13 -11 9 -18 -3 -6 -2 -8 2 -3 14 12 13 44 -2 44 -7 0 -18 -7 -25 -14z"/>
<path d="M2055 1501 c-6 -11 13 -26 22 -17 4 3 1 6 -6 6 -7 0 -9 5 -6 10 3 6
4 10 1 10 -3 0 -7 -4 -11 -9z"/>
<path d="M1976 1487 c3 -10 9 -15 12 -12 3 3 0 11 -7 18 -10 9 -11 8 -5 -6z"/>
<path d="M2135 1450 c-4 -6 -10 -8 -15 -5 -5 3 -11 1 -14 -4 -8 -13 22 -7 36
7 7 7 9 12 6 12 -4 0 -10 -5 -13 -10z"/>
<path d="M2366 1444 c-10 -26 3 -34 32 -18 24 12 28 12 38 -1 10 -14 12 -14
18 2 4 10 4 14 0 10 -4 -4 -12 -3 -19 3 -7 6 -21 4 -38 -5 -28 -14 -36 -8 -15
13 8 8 8 12 1 12 -6 0 -14 -7 -17 -16z"/>
<path d="M2176 1442 c-3 -5 1 -9 9 -9 8 0 12 4 9 9 -3 4 -7 8 -9 8 -2 0 -6 -4
-9 -8z"/>
<path d="M2234 1425 c0 -13 3 -22 7 -19 8 4 6 30 -2 38 -3 3 -5 -5 -5 -19z"/>
<path d="M2300 1438 c0 -6 3 -8 7 -5 3 4 11 -1 18 -10 9 -13 14 -13 20 -3 5 8
4 11 -2 7 -6 -4 -13 0 -17 8 -6 18 -26 20 -26 3z"/>
<path d="M2267 1427 c-3 -7 3 -13 14 -13 13 0 15 3 7 13 -6 7 -12 13 -13 13
-2 0 -5 -6 -8 -13z"/>
<path d="M2466 1414 c-8 -22 -8 -24 6 -24 6 0 8 3 5 7 -4 3 -2 12 4 20 7 8 8
13 1 13 -5 0 -13 -7 -16 -16z"/>
<path d="M2420 1413 c0 -6 8 -17 18 -24 16 -13 16 -13 2 6 -8 11 -16 22 -17
24 -2 2 -3 0 -3 -6z"/>
<path d="M2498 1413 c-10 -20 -1 -38 19 -39 12 -1 20 2 17 7 -2 4 -12 5 -22 2
-14 -6 -15 -4 -4 9 8 10 9 19 3 22 -5 4 -11 3 -13 -1z"/>
<path d="M2316 1378 c3 -5 10 -6 15 -3 13 9 11 12 -6 12 -8 0 -12 -4 -9 -9z"/>
<path d="M2413 1369 c-2 -23 3 -25 10 -4 4 8 3 16 -1 19 -4 3 -9 -4 -9 -15z"/>
<path d="M2605 1380 c-3 -5 -1 -10 4 -10 6 0 11 5 11 10 0 6 -2 10 -4 10 -3 0
-8 -4 -11 -10z"/>
<path d="M2640 1370 c-9 -6 -10 -10 -3 -10 6 0 15 5 18 10 8 12 4 12 -15 0z"/>
<path d="M2436 1353 c-6 -14 -5 -15 5 -6 7 7 10 15 7 18 -3 3 -9 -2 -12 -12z"/>
<path d="M2660 1355 c-10 -12 -9 -16 4 -21 8 -3 21 -4 28 -1 7 3 2 6 -11 6
-20 1 -21 3 -11 16 7 8 10 15 7 15 -2 0 -10 -7 -17 -15z"/>
<path d="M2520 1356 c0 -2 7 -7 16 -10 8 -3 12 -2 9 4 -6 10 -25 14 -25 6z"/>
<path d="M2588 1353 c7 -3 16 -2 19 1 4 3 -2 6 -13 5 -11 0 -14 -3 -6 -6z"/>
<path d="M2500 1346 c0 -2 8 -10 18 -17 15 -13 16 -12 3 4 -13 16 -21 21 -21
13z"/>
<path d="M2738 1333 c6 -2 10 -8 8 -12 -3 -4 5 -8 17 -8 21 -2 22 -1 3 13 -11
8 -25 14 -30 13 -6 0 -5 -3 2 -6z"/>
<path d="M2787 1331 c6 -7 9 -20 6 -27 -3 -8 -3 -14 0 -14 14 0 14 30 -1 41
-14 11 -15 11 -5 0z"/>
<path d="M2470 1320 c0 -5 5 -10 11 -10 5 0 7 5 4 10 -3 6 -8 10 -11 10 -2 0
-4 -4 -4 -10z"/>
<path d="M2610 1320 c0 -5 5 -10 10 -10 6 0 10 5 10 10 0 6 -4 10 -10 10 -5 0
-10 -4 -10 -10z"/>
<path d="M2710 1321 c0 -5 7 -15 17 -22 15 -13 15 -12 4 9 -12 23 -21 28 -21
13z"/>
<path d="M2820 1320 c0 -5 5 -10 11 -10 5 0 7 5 4 10 -3 6 -8 10 -11 10 -2 0
-4 -4 -4 -10z"/>
<path d="M2530 1299 c0 -5 5 -7 10 -4 6 3 10 8 10 11 0 2 -4 4 -10 4 -5 0 -10
-5 -10 -11z"/>
<path d="M2673 1289 c-1 -10 2 -21 7 -24 4 -2 7 3 6 13 0 10 5 16 14 14 8 -2
11 0 7 4 -15 15 -33 11 -34 -7z"/>
<path d="M2806 1283 c-6 -14 -5 -15 5 -6 7 7 10 15 7 18 -3 3 -9 -2 -12 -12z"/>
<path d="M2838 1293 c7 -3 16 -2 19 1 4 3 -2 6 -13 5 -11 0 -14 -3 -6 -6z"/>
<path d="M2897 1294 c-3 -3 -3 -12 -1 -19 4 -10 -1 -12 -18 -8 -13 3 -21 3
-18 0 3 -3 14 -7 25 -9 14 -2 20 3 21 20 1 24 1 25 -9 16z"/>
<path d="M2921 1284 c0 -11 3 -14 6 -6 3 7 2 16 -1 19 -3 4 -6 -2 -5 -13z"/>
<path d="M2613 1255 c0 -8 4 -12 9 -9 5 3 6 10 3 15 -9 13 -12 11 -12 -6z"/>
<path d="M2820 1260 c-8 -5 -10 -10 -5 -10 6 0 17 5 25 10 8 5 11 10 5 10 -5
0 -17 -5 -25 -10z"/>
<path d="M2775 1251 c-3 -5 -2 -12 3 -15 5 -3 9 1 9 9 0 17 -3 19 -12 6z"/>
<path d="M2726 1242 c-3 -5 1 -9 9 -9 8 0 15 4 15 9 0 4 -4 8 -9 8 -6 0 -12
-4 -15 -8z"/>
<path d="M2855 1240 c3 -5 8 -10 11 -10 2 0 4 5 4 10 0 6 -5 10 -11 10 -5 0
-7 -4 -4 -10z"/>
<path d="M2910 1241 c0 -6 4 -13 10 -16 6 -3 7 1 4 9 -7 18 -14 21 -14 7z"/>
<path d="M2947 1219 c7 -7 15 -10 18 -7 3 3 -2 9 -12 12 -14 6 -15 5 -6 -5z"/>
<path d="M3017 1213 c6 -16 5 -16 -10 -4 -10 8 -19 12 -21 10 -2 -2 6 -11 18
-20 21 -16 22 -16 23 2 1 10 -2 21 -8 24 -5 4 -6 -2 -2 -12z"/>
<path d="M2923 1199 c9 -6 14 -15 11 -21 -4 -7 -2 -8 5 -4 14 9 -3 36 -23 36
-6 0 -3 -5 7 -11z"/>
<path d="M3071 1190 c-13 -11 -19 -20 -13 -20 5 0 15 7 22 15 7 8 16 12 21 9
5 -3 9 0 9 5 0 16 -12 13 -39 -9z"/>
<path d="M3190 1191 c0 -5 7 -12 16 -15 14 -5 15 -4 4 9 -14 17 -20 19 -20 6z"/>
<path d="M3113 1167 c0 -8 6 -14 14 -14 9 0 10 4 2 14 -6 7 -12 13 -14 13 -1
0 -2 -6 -2 -13z"/>
<path d="M3325 1163 c12 -14 17 -15 27 -4 11 11 10 13 -3 8 -9 -3 -22 -1 -28
4 -6 5 -4 1 4 -8z"/>
<path d="M3288 1153 c6 -9 17 -18 26 -19 9 -1 14 2 10 7 -3 5 -10 7 -15 4 -5
-4 -9 1 -9 9 0 9 -5 16 -10 16 -7 0 -8 -6 -2 -17z"/>
<path d="M3200 1151 c0 -7 -5 -9 -12 -5 -7 5 -8 3 -3 -5 5 -9 10 -10 18 -2 6
6 8 14 4 18 -4 3 -7 1 -7 -6z"/>
<path d="M3394 1148 c3 -10 -2 -22 -12 -27 -9 -6 -12 -11 -6 -11 6 0 18 7 25
16 12 15 14 14 21 -7 7 -24 7 -24 5 -1 -1 12 -6 22 -11 22 -5 -1 -13 4 -18 12
-8 10 -9 9 -4 -4z"/>
<path d="M3273 1132 c0 -12 5 -22 9 -22 11 0 10 12 -2 30 -7 12 -9 10 -7 -8z"/>
<path d="M5730 1146 c0 -2 7 -7 16 -10 8 -3 12 -2 9 4 -6 10 -25 14 -25 6z"/>
<path d="M3348 1133 c6 -2 18 -2 25 0 6 3 1 5 -13 5 -14 0 -19 -2 -12 -5z"/>
<path d="M3076 1113 c-6 -14 -5 -15 5 -6 7 7 10 15 7 18 -3 3 -9 -2 -12 -12z"/>
<path d="M5850 1121 c0 -6 4 -13 10 -16 6 -3 7 1 4 9 -7 18 -14 21 -14 7z"/>
<path d="M5890 1120 c0 -5 5 -10 11 -10 5 0 7 5 4 10 -3 6 -8 10 -11 10 -2 0
-4 -4 -4 -10z"/>
<path d="M3310 1100 c0 -5 5 -10 11 -10 5 0 7 5 4 10 -3 6 -8 10 -11 10 -2 0
-4 -4 -4 -10z"/>
<path d="M3560 1096 c14 -18 13 -19 -5 -12 -16 6 -18 5 -7 -5 8 -9 15 -10 22
-3 8 8 5 15 -7 25 -17 13 -17 13 -3 -5z"/>
<path d="M5975 1100 c-3 -5 -1 -10 4 -10 6 0 11 5 11 10 0 6 -2 10 -4 10 -3 0
-8 -4 -11 -10z"/>
<path d="M3510 1090 c0 -5 5 -10 10 -10 6 0 10 5 10 10 0 6 -4 10 -10 10 -5 0
-10 -4 -10 -10z"/>
<path d="M3415 1080 c-3 -5 3 -7 12 -5 10 1 25 -2 33 -8 12 -9 13 -9 3 3 -15
16 -41 22 -48 10z"/>
<path d="M5864 1082 c4 -3 14 -7 22 -8 9 -1 13 0 10 4 -4 3 -14 7 -22 8 -9 1
-13 0 -10 -4z"/>
<path d="M5910 1081 c0 -6 4 -13 10 -16 6 -3 7 1 4 9 -7 18 -14 21 -14 7z"/>
<path d="M5954 1068 c3 -21 16 -38 29 -38 7 0 4 5 -6 11 -9 6 -15 14 -12 19 3
5 1 11 -4 14 -5 4 -8 0 -7 -6z"/>
<path d="M3575 1061 c-6 -11 13 -26 22 -17 4 3 1 6 -6 6 -7 0 -9 5 -6 10 3 6
4 10 1 10 -3 0 -7 -4 -11 -9z"/>
<path d="M6149 1043 c-13 -16 -12 -17 4 -4 16 13 21 21 13 21 -2 0 -10 -8 -17
-17z"/>
<path d="M3610 1041 c0 -4 11 -7 25 -7 14 0 25 3 25 7 0 3 -11 7 -25 7 -14 0
-25 -4 -25 -7z"/>
<path d="M3712 1041 c-11 -6 -10 -10 4 -15 9 -3 19 -4 22 -1 3 3 0 5 -7 5 -7
0 -9 5 -6 10 7 12 4 12 -13 1z"/>
<path d="M5910 1039 c-12 -8 -10 -9 8 -4 16 5 22 3 20 -7 -2 -7 8 -13 22 -15
24 -2 24 -2 2 5 -13 4 -23 11 -22 17 2 14 -13 16 -30 4z"/>
<path d="M6030 1045 c0 -7 30 -13 34 -7 3 4 -4 9 -15 9 -10 1 -19 0 -19 -2z"/>
<path d="M3553 1025 c0 -8 4 -12 9 -9 5 3 6 10 3 15 -9 13 -12 11 -12 -6z"/>
<path d="M3495 1020 c3 -5 8 -10 11 -10 2 0 4 5 4 10 0 6 -5 10 -11 10 -5 0
-7 -4 -4 -10z"/>
<path d="M3673 1015 c0 -8 4 -12 9 -9 4 3 8 9 8 15 0 5 -4 9 -8 9 -5 0 -9 -7
-9 -15z"/>
<path d="M3820 1015 c7 -8 16 -12 21 -9 5 3 9 0 9 -5 0 -6 5 -11 11 -11 8 0 8
5 -1 15 -7 8 -16 12 -21 9 -5 -3 -9 0 -9 5 0 6 -5 11 -11 11 -8 0 -8 -5 1 -15z"/>
<path d="M6030 1013 c8 -12 17 -20 21 -17 4 2 9 -2 12 -8 3 -7 4 -3 4 9 -1 12
-5 19 -10 16 -4 -2 -15 1 -24 9 -15 12 -15 11 -3 -9z"/>
<path d="M6104 998 l-19 -23 23 19 c12 11 22 21 22 23 0 8 -8 2 -26 -19z"/>
<path d="M3715 1001 c-3 -5 -2 -12 3 -15 5 -3 9 1 9 9 0 17 -3 19 -12 6z"/>
<path d="M3780 1000 c-8 -5 -10 -10 -5 -10 6 0 17 5 25 10 8 5 11 10 5 10 -5
0 -17 -5 -25 -10z"/>
<path d="M6155 1000 c-3 -5 -1 -10 4 -10 6 0 11 5 11 10 0 6 -2 10 -4 10 -3 0
-8 -4 -11 -10z"/>
<path d="M3653 985 c0 -8 4 -12 9 -9 5 3 6 10 3 15 -9 13 -12 11 -12 -6z"/>
<path d="M3746 983 c-6 -14 -5 -15 5 -6 7 7 10 15 7 18 -3 3 -9 -2 -12 -12z"/>
<path d="M3795 981 c-3 -5 0 -13 6 -17 7 -4 9 -3 5 4 -3 5 0 13 6 15 9 4 10 6
1 6 -6 1 -14 -3 -18 -8z"/>
<path d="M3955 980 c3 -6 1 -10 -6 -10 -7 0 -10 -3 -6 -6 3 -3 13 -2 22 4 16
8 16 9 1 15 -10 4 -15 3 -11 -3z"/>
<path d="M3990 959 c0 -5 5 -7 10 -4 6 3 10 8 10 11 0 2 -4 4 -10 4 -5 0 -10
-5 -10 -11z"/>
<path d="M6060 966 c0 -2 8 -10 18 -17 15 -13 16 -12 3 4 -13 16 -21 21 -21
13z"/>
<path d="M6096 961 c8 -8 43 -8 38 0 -2 4 -13 7 -24 6 -10 -1 -17 -3 -14 -6z"/>
<path d="M6150 959 c0 -5 5 -7 10 -4 6 3 10 8 10 11 0 2 -4 4 -10 4 -5 0 -10
-5 -10 -11z"/>
<path d="M3770 939 c0 -5 5 -7 10 -4 6 3 10 8 10 11 0 2 -4 4 -10 4 -5 0 -10
-5 -10 -11z"/>
<path d="M3960 946 c0 -2 7 -7 16 -10 8 -3 12 -2 9 4 -6 10 -25 14 -25 6z"/>
<path d="M4005 940 c-6 -9 -4 -11 5 -5 10 6 12 3 8 -13 -4 -13 -2 -20 3 -16 6
3 16 1 24 -6 10 -8 15 -8 21 1 4 7 3 9 -4 5 -5 -3 -19 6 -30 20 -14 20 -21 24
-27 14z"/>
<path d="M6016 941 c-3 -4 4 -17 17 -27 l22 -19 -20 24 c-18 21 -18 24 -2 18
9 -4 17 -2 17 3 0 12 -27 13 -34 1z"/>
<path d="M6061 926 c-1 -11 4 -16 13 -13 7 3 20 0 27 -6 11 -10 11 -9 0 5 -7
10 -17 16 -21 13 -5 -3 -11 1 -13 7 -3 8 -6 5 -6 -6z"/>
<path d="M3845 900 c-3 -6 1 -7 9 -4 18 7 21 14 7 14 -6 0 -13 -4 -16 -10z"/>
<path d="M3935 900 c3 -5 8 -10 11 -10 2 0 4 5 4 10 0 6 -5 10 -11 10 -5 0 -7
-4 -4 -10z"/>
<path d="M5999 893 c-13 -17 -13 -17 5 -3 18 14 19 13 13 -3 -5 -12 -3 -16 5
-11 7 5 9 2 5 -9 -4 -10 -2 -14 7 -11 7 3 13 11 13 19 0 8 -3 13 -5 10 -3 -3
-10 2 -17 11 -10 14 -13 14 -26 -3z"/>
<path d="M5979 868 c-6 -18 -3 -46 3 -42 5 4 7 12 4 19 -3 8 0 16 7 19 9 3 9
5 0 5 -7 1 -13 0 -14 -1z"/>
<path d="M5916 813 c-6 -14 -5 -15 5 -6 7 7 10 15 7 18 -3 3 -9 -2 -12 -12z"/>
<path d="M5850 807 c0 -3 15 -10 32 -16 18 -6 28 -7 23 -2 -12 10 -55 25 -55
18z"/>
<path d="M5933 797 c-3 -5 -2 -11 1 -14 3 -4 6 -2 6 4 0 6 11 9 25 8 14 -2 27
0 29 4 3 4 -9 7 -26 6 -16 0 -32 -4 -35 -8z"/>
<path d="M5813 773 c-3 -7 -9 -10 -14 -7 -5 3 -9 3 -9 0 0 -3 9 -10 19 -15 16
-9 18 -8 14 7 -3 12 2 18 17 19 12 1 18 -2 14 -9 -4 -7 -2 -8 5 -4 6 4 9 11 6
16 -8 13 -47 8 -52 -7z"/>
<path d="M6010 779 c0 -5 5 -7 10 -4 6 3 10 8 10 11 0 2 -4 4 -10 4 -5 0 -10
-5 -10 -11z"/>
<path d="M5871 733 c7 -12 15 -20 18 -17 3 2 -3 12 -13 22 -17 16 -18 16 -5
-5z"/>
<path d="M5692 720 c0 -14 2 -19 5 -12 2 6 2 18 0 25 -3 6 -5 1 -5 -13z"/>
<path d="M5765 720 c-5 -7 52 -6 60 1 2 3 -9 5 -26 5 -16 0 -32 -3 -34 -6z"/>
<path d="M5715 709 c-4 -6 -5 -12 -2 -15 2 -3 7 2 10 11 7 17 1 20 -8 4z"/>
<path d="M5597 690 c-9 -11 -12 -20 -7 -20 6 0 13 7 16 15 4 8 11 12 17 8 6
-3 7 -1 3 5 -9 15 -9 15 -29 -8z"/>
<path d="M5670 701 c0 -6 4 -13 10 -16 6 -3 7 1 4 9 -7 18 -14 21 -14 7z"/>
<path d="M5775 689 c-4 -6 -5 -12 -2 -15 2 -3 7 2 10 11 7 17 1 20 -8 4z"/>
<path d="M5635 680 c-3 -5 -2 -10 4 -10 5 0 13 5 16 10 3 6 2 10 -4 10 -5 0
-13 -4 -16 -10z"/>
<path d="M5567 653 c4 -11 3 -14 -5 -9 -8 5 -10 1 -5 -10 4 -11 8 -13 11 -6 2
7 8 9 14 6 6 -4 5 2 -1 15 -14 25 -23 28 -14 4z"/>
<path d="M5615 660 c6 -10 4 -12 -11 -6 -15 6 -17 5 -6 -5 9 -9 15 -10 23 -2
8 8 7 13 -2 18 -8 6 -10 4 -4 -5z"/>
<path d="M5650 657 c0 -2 6 -10 14 -16 11 -9 16 -9 22 1 4 7 4 10 -1 6 -4 -4
-14 -3 -22 3 -7 6 -13 9 -13 6z"/>
<path d="M4055 620 c3 -5 8 -10 11 -10 2 0 4 5 4 10 0 6 -5 10 -11 10 -5 0 -7
-4 -4 -10z"/>
<path d="M3966 599 c4 -8 30 -6 38 2 3 3 -5 5 -19 5 -13 0 -22 -3 -19 -7z"/>
<path d="M4036 593 c18 -14 18 -15 -3 -33 -13 -10 -23 -21 -23 -25 0 -4 7 -2
15 5 8 6 19 9 24 6 16 -10 22 11 10 37 -6 13 -18 24 -26 24 -13 0 -12 -3 3
-14z"/>
<path d="M5665 600 c-3 -6 1 -7 9 -4 18 7 21 14 7 14 -6 0 -13 -4 -16 -10z"/>
<path d="M4005 579 c-4 -6 -4 -13 -1 -16 3 -4 6 -1 6 6 0 7 5 9 12 5 7 -4 8
-3 4 4 -9 15 -13 15 -21 1z"/>
<path d="M5536 581 c-3 -5 2 -15 12 -22 15 -13 16 -12 4 3 -10 13 -10 17 0 21
9 4 9 6 1 6 -6 1 -14 -3 -17 -8z"/>
<path d="M3963 558 c-11 -19 -13 -39 -2 -32 5 3 7 9 4 14 -3 5 3 13 12 19 10
6 13 11 6 11 -6 0 -15 -6 -20 -12z"/>
<path d="M4030 519 c0 -6 -9 -8 -22 -3 -21 6 -21 5 4 -15 31 -25 53 -20 55 12
l1 22 -10 -22 c-6 -13 -15 -23 -20 -23 -12 0 -10 14 4 28 9 9 9 12 0 12 -7 0
-12 -5 -12 -11z"/>
<path d="M3935 500 c3 -5 8 -10 11 -10 2 0 4 5 4 10 0 6 -5 10 -11 10 -5 0 -7
-4 -4 -10z"/>
<path d="M3992 486 c7 -8 15 -12 17 -11 5 6 -10 25 -20 25 -5 0 -4 -6 3 -14z"/>
<path d="M3956 475 c-3 -9 -11 -13 -17 -9 -8 5 -9 3 -4 -5 6 -10 11 -9 23 3 9
8 13 18 10 21 -3 3 -8 -1 -12 -10z"/>
<path d="M3933 425 c0 -8 4 -12 9 -9 5 3 6 10 3 15 -9 13 -12 11 -12 -6z"/>
<path d="M5495 420 c3 -5 8 -10 11 -10 2 0 4 5 4 10 0 6 -5 10 -11 10 -5 0 -7
-4 -4 -10z"/>
<path d="M3994 406 c1 -8 5 -18 8 -22 4 -3 5 1 4 10 -1 8 -5 18 -8 22 -4 3 -5
-1 -4 -10z"/>
<path d="M5433 385 c0 -8 4 -12 9 -9 5 3 6 10 3 15 -9 13 -12 11 -12 -6z"/>
<path d="M5350 370 c0 -5 5 -10 11 -10 5 0 7 5 4 10 -3 6 -8 10 -11 10 -2 0
-4 -4 -4 -10z"/>
<path d="M5399 353 c-13 -16 -12 -17 4 -4 9 7 17 15 17 17 0 8 -8 3 -21 -13z"/>
<path d="M3959 333 c-13 -17 -13 -17 6 -3 11 8 22 16 24 17 2 2 0 3 -6 3 -6 0
-17 -8 -24 -17z"/>
<path d="M5360 335 c-11 -13 -11 -18 0 -28 10 -9 11 -9 6 1 -4 7 -2 19 4 27 7
8 10 15 7 15 -2 0 -10 -7 -17 -15z"/>
<path d="M5262 329 c10 -5 15 -16 12 -24 -4 -8 -1 -15 6 -15 6 0 9 4 5 9 -3 5
-1 12 5 16 5 3 10 12 10 18 0 8 -3 8 -9 -2 -6 -9 -11 -10 -15 -2 -4 6 -13 11
-19 11 -7 0 -4 -5 5 -11z"/>
<path d="M5227 287 c-3 -8 1 -14 8 -14 7 0 11 6 8 14 -6 16 -10 16 -16 0z"/>
<path d="M4216 275 c-3 -9 1 -18 9 -21 8 -4 13 -10 10 -14 -3 -4 3 -14 13 -21
16 -13 16 -13 2 5 -14 18 -13 19 5 13 18 -7 19 -6 3 6 -10 8 -15 17 -11 21 4
4 -1 4 -12 0 -18 -7 -18 -6 -6 9 7 9 9 17 3 17 -5 0 -13 -7 -16 -15z"/>
<path d="M4190 256 c0 -2 8 -10 18 -17 15 -13 16 -12 3 4 -13 16 -21 21 -21
13z"/>
<path d="M4756 237 c-14 -10 -15 -17 -6 -37 10 -25 10 -25 5 3 -4 20 -1 27 10
27 8 0 15 5 15 10 0 13 -3 13 -24 -3z"/>
<path d="M5036 234 c-8 -20 -8 -24 2 -24 4 0 8 9 9 20 2 24 -3 26 -11 4z"/>
<path d="M5150 241 c0 -6 4 -13 10 -16 6 -3 7 1 4 9 -7 18 -14 21 -14 7z"/>
<path d="M5190 246 c0 -2 7 -7 16 -10 8 -3 12 -2 9 4 -6 10 -25 14 -25 6z"/>
<path d="M4310 231 c0 -6 4 -13 10 -16 6 -3 7 1 4 9 -7 18 -14 21 -14 7z"/>
<path d="M4646 225 c-18 -13 -22 -30 -5 -20 5 4 18 0 27 -7 9 -8 24 -18 32
-22 8 -4 3 2 -12 14 -33 26 -35 36 -8 36 12 0 19 -5 16 -13 -3 -8 1 -10 11 -6
12 5 14 3 8 -8 -7 -12 -6 -12 6 -1 12 11 11 15 -6 25 -27 15 -50 16 -69 2z"/>
<path d="M4350 208 c-10 -21 -10 -21 3 -6 8 10 18 14 22 10 5 -4 5 -1 1 6 -10
17 -14 15 -26 -10z"/>
<path d="M4273 205 c0 -8 4 -15 9 -15 4 0 8 4 8 9 0 6 -4 12 -8 15 -5 3 -9 -1
-9 -9z"/>
<path d="M4411 204 c0 -11 3 -14 6 -6 3 7 2 16 -1 19 -3 4 -6 -2 -5 -13z"/>
<path d="M5133 205 c0 -8 4 -12 9 -9 5 3 6 10 3 15 -9 13 -12 11 -12 -6z"/>
<path d="M4450 195 c0 -8 2 -15 4 -15 2 0 6 7 10 15 3 8 1 15 -4 15 -6 0 -10
-7 -10 -15z"/>
<path d="M4844 199 c-3 -6 -1 -16 5 -22 9 -9 10 -7 5 7 -5 13 -4 17 4 12 7 -4
12 -2 12 3 0 14 -17 14 -26 0z"/>
<path d="M5064 202 c4 -3 14 -7 22 -8 9 -1 13 0 10 4 -4 3 -14 7 -22 8 -9 1
-13 0 -10 -4z"/>
<path d="M4773 183 c4 -6 2 -13 -5 -15 -8 -3 -6 -6 4 -10 17 -7 19 15 3 29 -4
4 -5 3 -2 -4z"/>
<path d="M4819 188 c-7 -23 -5 -37 4 -35 7 1 11 -4 9 -11 -1 -8 2 -11 8 -7 8
5 6 13 -4 24 -9 10 -13 21 -9 24 3 4 3 7 0 7 -4 0 -7 -1 -8 -2z"/>
<path d="M4875 181 c-3 -5 0 -13 6 -17 7 -4 9 -3 5 4 -3 5 0 13 6 15 9 4 10 6
1 6 -6 1 -14 -3 -18 -8z"/>
<path d="M4376 162 c-3 -5 1 -9 9 -9 8 0 12 4 9 9 -3 4 -7 8 -9 8 -2 0 -6 -4
-9 -8z"/>
<path d="M4436 158 c3 -5 10 -6 15 -3 13 9 11 12 -6 12 -8 0 -12 -4 -9 -9z"/>
<path d="M4547 159 c7 -7 15 -10 18 -7 3 3 -2 9 -12 12 -14 6 -15 5 -6 -5z"/>
<path d="M4593 145 c0 -8 4 -12 9 -9 5 3 6 10 3 15 -9 13 -12 11 -12 -6z"/>
<path d="M4720 140 c-9 -6 -10 -10 -3 -10 6 0 15 5 18 10 8 12 4 12 -15 0z"/>
<path d="M4930 146 c0 -2 7 -7 16 -10 8 -3 12 -2 9 4 -6 10 -25 14 -25 6z"/>
<path d="M4516 113 c-6 -14 -5 -15 5 -6 7 7 10 15 7 18 -3 3 -9 -2 -12 -12z"/>
</g>
</svg>
